# xmcd CD database file
#
# Track frame offsets:
#	150
#	32703
#	56706
#	88978
#	125136
#	159246
#	183937
#	222496
#
# Disc length: 3424 seconds
#
# Revision: 0
# Processed by: cddbd v1.5.1PL0 Copyright (c) Steve Scherf et al.
# Submitted via: CDex 1.51
#
DISCID=720d5e08
DTITLE=World Saxophone Quartet - Experience
DYEAR=2004
DGENRE=Jazz
TTITLE0=Freedom
TTITLE1=If 6 Was 9
TTITLE2=Hey Joe
TTITLE3=Machine Gun
TTITLE4=Little Wing
TTITLE5=Foxey Lady
TTITLE6=Hear My Train A Comin'
TTITLE7=The Wind Cries Mary
EXTD=YEAR: 2004
EXTT0=
EXTT1=
EXTT2=
EXTT3=
EXTT4=
EXTT5=
EXTT6=
EXTT7=
PLAYORDER=
